<svg width="28" height="34" viewBox="0 0 28 34" fill="none" xmlns="http://www.w3.org/2000/svg">
<path d="M27.3332 3.9283C27.3332 3.04425 26.982 2.1964 26.3569 1.57128C25.7317 0.94616 24.8839 0.594971 23.9998 0.594971H10.6665L0.666504 10.595V30.595C0.666504 31.479 1.01769 32.3269 1.64281 32.952C2.26794 33.5771 3.11578 33.9283 3.99984 33.9283H23.9998C24.8839 33.9283 25.7317 33.5771 26.3569 32.952C26.982 32.3269 27.3332 31.479 27.3332 30.595V3.9283ZM8.99984 28.9283H5.6665V25.595H8.99984V28.9283ZM22.3332 28.9283H18.9998V25.595H22.3332V28.9283ZM8.99984 22.2616H5.6665V15.595H8.99984V22.2616ZM15.6665 28.9283H12.3332V22.2616H15.6665V28.9283ZM15.6665 18.9283H12.3332V15.595H15.6665V18.9283ZM22.3332 22.2616H18.9998V15.595H22.3332V22.2616Z" fill="black"/>
</svg>
