<svg width="268" height="51" viewBox="0 0 268 51" fill="none" xmlns="http://www.w3.org/2000/svg">
<path d="M28.526 4.776C32.9319 4.776 36.7677 5.63277 40.0397 7.34371C43.3207 9.05465 45.8629 11.4505 47.6662 14.5338C49.4816 17.6145 50.3893 21.2031 50.3893 25.2942C50.3893 29.3854 49.4696 32.9635 47.63 36.026C45.8056 39.0859 43.2513 41.4713 39.9673 43.1823C36.6984 44.8932 32.8595 45.75 28.4567 45.75H27.5791C23.1733 45.75 19.3374 44.8932 16.0655 43.1823C12.7965 41.4713 10.2393 39.0859 8.40277 36.026C6.56323 32.9635 5.64648 29.3854 5.64648 25.2942C5.64648 21.2031 6.55117 17.6145 8.36658 14.5338C10.182 11.4505 12.7242 9.05465 15.9931 7.34371C19.265 5.63277 23.1009 4.776 27.5068 4.776H28.526ZM13.7917 25.4192C13.7917 22.677 14.3888 20.2942 15.583 18.276C16.7892 16.2448 18.4538 14.6718 20.5768 13.5599C22.7029 12.4349 25.1847 11.875 28.0254 11.875C30.8541 11.875 33.3299 12.4349 35.4559 13.5599C37.594 14.6718 39.2586 16.2448 40.4498 18.276C41.644 20.2942 42.2411 22.677 42.2411 25.4192H46.7887C46.7887 21.8724 46.0317 18.7916 44.5149 16.1718C43.001 13.5546 40.8569 11.5182 38.0886 10.0651C35.3293 8.61194 32.1207 7.88538 28.4567 7.88538H27.5791C23.9151 7.88538 20.7095 8.61194 17.9623 10.0651C15.2301 11.5182 13.0921 13.5546 11.5541 16.1718C10.0131 18.7916 9.24412 21.8724 9.24412 25.4192H13.7917ZM28.0254 35.6849C31.2009 35.6849 33.7551 34.7265 35.6881 32.8099C37.6212 30.8802 38.5892 28.3776 38.5892 25.2942C38.5892 22.1718 37.6212 19.6718 35.6881 17.7968C33.7551 15.9088 31.2009 14.9661 28.0254 14.9661C24.8982 14.9661 22.3561 15.9088 20.3989 17.7968C18.4418 19.6718 17.4617 22.1718 17.4617 25.2942C17.4617 28.3776 18.4418 30.8802 20.3989 32.8099C22.3561 34.7265 24.8982 35.6849 28.0254 35.6849ZM76.9268 4.776C81.3326 4.776 85.1685 5.63277 88.4405 7.34371C91.7215 9.05465 94.2637 11.4505 96.067 14.5338C97.8824 17.6145 98.7901 21.2031 98.7901 25.2942C98.7901 29.3854 97.8703 32.9635 96.0308 36.026C94.2064 39.0859 91.6521 41.4713 88.3681 43.1823C85.0992 44.8932 81.2603 45.75 76.8544 45.75H75.9799C71.5741 45.75 67.7352 44.8932 64.4663 43.1823C61.1943 41.4713 58.6401 39.0859 56.8036 36.026C54.964 32.9635 54.0443 29.3854 54.0443 25.2942C54.0443 21.2031 54.952 17.6145 56.7674 14.5338C58.5828 11.4505 61.1249 9.05465 64.3939 7.34371C67.6658 5.63277 71.5017 4.776 75.9075 4.776H76.9268ZM62.1925 25.4192C62.1925 22.677 62.7896 20.2942 63.9838 18.276C65.187 16.2448 66.8546 14.6718 68.9776 13.5599C71.1037 12.4349 73.5855 11.875 76.4262 11.875C79.2549 11.875 81.7307 12.4349 83.8567 13.5599C85.9918 14.6718 87.6594 16.2448 88.8506 18.276C90.0448 20.2942 90.6419 22.677 90.6419 25.4192H95.1894C95.1894 21.8724 94.4325 18.7916 92.9157 16.1718C91.3988 13.5546 89.2577 11.5182 86.4894 10.0651C83.7301 8.61194 80.5214 7.88538 76.8544 7.88538H75.9799C72.3129 7.88538 69.1103 8.61194 66.3631 10.0651C63.6309 11.5182 61.4928 13.5546 59.9549 16.1718C58.4139 18.7916 57.6449 21.8724 57.6449 25.4192H62.1925ZM76.4262 35.6849C79.6017 35.6849 82.1559 34.7265 84.0889 32.8099C86.0219 30.8802 86.99 28.3776 86.99 25.2942C86.99 22.1718 86.0219 19.6718 84.0889 17.7968C82.1559 15.9088 79.6017 14.9661 76.4262 14.9661C73.299 14.9661 70.7569 15.9088 68.7997 17.7968C66.8426 19.6718 65.8625 22.1718 65.8625 25.2942C65.8625 28.3776 66.8426 30.8802 68.7997 32.8099C70.7569 34.7265 73.299 35.6849 76.4262 35.6849ZM125.328 4.776C129.733 4.776 133.569 5.63277 136.841 7.34371C140.122 9.05465 142.664 11.4505 144.468 14.5338C146.283 17.6145 147.188 21.2031 147.188 25.2942C147.188 29.3854 146.271 32.9635 144.432 36.026C142.604 39.0859 140.05 41.4713 136.769 43.1823C133.497 44.8932 129.661 45.75 125.255 45.75H124.378C119.975 45.75 116.136 44.8932 112.867 43.1823C109.595 41.4713 107.041 39.0859 105.204 36.026C103.365 32.9635 102.445 29.3854 102.445 25.2942C102.445 21.2031 103.353 17.6145 105.168 14.5338C106.981 11.4505 109.526 9.05465 112.795 7.34371C116.067 5.63277 119.903 4.776 124.308 4.776H125.328ZM110.593 25.4192C110.593 22.677 111.19 20.2942 112.385 18.276C113.588 16.2448 115.252 14.6718 117.378 13.5599C119.504 12.4349 121.986 11.875 124.827 11.875C127.656 11.875 130.132 12.4349 132.258 13.5599C134.393 14.6718 136.057 16.2448 137.251 18.276C138.446 20.2942 139.043 22.677 139.043 25.4192H143.59C143.59 21.8724 142.833 18.7916 141.316 16.1718C139.8 13.5546 137.659 11.5182 134.89 10.0651C132.131 8.61194 128.919 7.88538 125.255 7.88538H124.378C120.714 7.88538 117.511 8.61194 114.764 10.0651C112.032 11.5182 109.894 13.5546 108.356 16.1718C106.815 18.7916 106.046 21.8724 106.046 25.4192H110.593ZM124.827 35.6849C128.002 35.6849 130.557 34.7265 132.49 32.8099C134.423 30.8802 135.391 28.3776 135.391 25.2942C135.391 22.1718 134.423 19.6718 132.49 17.7968C130.557 15.9088 128.002 14.9661 124.827 14.9661C121.7 14.9661 119.158 15.9088 117.2 17.7968C115.24 19.6718 114.263 22.1718 114.263 25.2942C114.263 28.3776 115.24 30.8802 117.2 32.8099C119.158 34.7265 121.7 35.6849 124.827 35.6849ZM174.624 23.8411L196.539 45.75H181.355L167.139 31.2474L164.938 33.4583V45.75H161.268V25.7421H156.72V45.75H153.05V4.776H164.938V18.5833L178.867 4.776H183.342L164.938 23.5156V28.5885L189.286 4.776H193.764L174.624 23.8411ZM223.245 23.8411L245.16 45.75H229.976L215.76 31.2474L213.559 33.4583V45.75H209.889V25.7421H205.338V45.75H201.668V4.776H213.559V18.5833L227.488 4.776H231.963L213.559 23.5156V28.5885L237.907 4.776H242.385L223.245 23.8411ZM251.025 4.776H262.913V45.75H259.242V26.8724H254.695V45.75H251.025V4.776Z" stroke="white" stroke-width="9.50002"/>
<path d="M36.0417 33.1564L36.0413 33.1569C34.0017 35.1824 31.3094 36.1771 28.0172 36.1771C24.7763 36.1771 22.1047 35.1807 20.0436 33.1591L20.0431 33.1586C17.981 31.1305 16.9625 28.4906 16.9625 25.2917C16.9625 22.0535 17.9797 19.4152 20.0473 17.4312L36.0417 33.1564ZM36.0417 33.1564C38.0788 31.1279 39.0839 28.4887 39.0839 25.2917M36.0417 33.1564L39.0839 25.2917M39.0839 25.2917C39.0839 22.0555 38.0802 19.418 36.0378 17.4336M39.0839 25.2917L36.0378 17.4336M36.0378 17.4336C33.998 15.4463 31.307 14.4688 28.0172 14.4688C24.7789 14.4688 22.1088 15.4478 20.0475 17.4309L36.0378 17.4336ZM39.8117 7.78681L39.8126 7.78728C43.0133 9.4538 45.4877 11.785 47.2478 14.7843L47.248 14.7847C49.006 17.7753 49.8931 21.2711 49.8931 25.2917C49.8931 29.3138 48.9944 32.8005 47.2139 35.7745C45.4297 38.7546 42.9423 41.0768 39.7402 42.7441L39.7399 42.7442C36.5487 44.4089 32.795 45.25 28.4635 45.25H27.5829C23.2484 45.25 19.4916 44.4089 16.2942 42.7441C13.0984 41.077 10.617 38.755 8.83256 35.7745C7.05205 32.8005 6.15332 29.3138 6.15332 25.2917C6.15332 21.2711 7.0405 17.7753 8.79843 14.7847L8.79862 14.7843C10.559 11.7846 13.0276 9.45346 16.2221 7.7871L16.2223 7.78699C19.4198 6.11709 23.1765 5.27087 27.5106 5.27087H28.5359C32.8669 5.27087 36.6205 6.11708 39.8117 7.78681ZM13.7955 25.9167H14.2955V25.4167C14.2955 22.7488 14.8757 20.4545 16.0231 18.5151L16.0233 18.5148C17.1723 16.5703 18.7648 15.0617 20.8077 13.9841C22.8533 12.9108 25.2526 12.3646 28.0172 12.3646C30.7884 12.3646 33.1877 12.9111 35.2269 13.9842L35.227 13.9842C37.2759 15.0619 38.8713 16.5705 40.0232 18.515C41.168 20.4548 41.7509 22.7494 41.7509 25.4167V25.9167H42.2509H46.7985H47.2985V25.4167C47.2985 21.802 46.5223 18.6344 44.9513 15.9265C43.3889 13.2254 41.1806 11.1212 38.3351 9.62048C35.4922 8.11797 32.1977 7.37504 28.4635 7.37504H27.5829C23.8489 7.37504 20.5599 8.11791 17.7343 9.62112L17.7339 9.62134C14.9191 11.1221 12.7128 13.2253 11.1212 15.9231L11.1207 15.924C9.53055 18.6327 8.74795 21.8012 8.74795 25.4167V25.9167H9.24795H13.7955Z" fill="black" stroke="white"/>
<path d="M84.4421 33.1564L84.4417 33.1569C82.4021 35.1824 79.7098 36.1771 76.4176 36.1771C73.1766 36.1771 70.5051 35.1807 68.444 33.1591L68.4435 33.1586C66.3814 31.1305 65.3629 28.4906 65.3629 25.2917C65.3629 22.0535 66.3801 19.4152 68.4477 17.4312L84.4421 33.1564ZM84.4421 33.1564C86.4792 31.1279 87.4843 28.4887 87.4843 25.2917M84.4421 33.1564L87.4843 25.2917M87.4843 25.2917C87.4843 22.0555 86.4806 19.418 84.4382 17.4336M87.4843 25.2917L84.4382 17.4336M84.4382 17.4336C82.3984 15.4463 79.7074 14.4688 76.4176 14.4688C73.1793 14.4688 70.5092 15.4478 68.4479 17.4309L84.4382 17.4336ZM88.2121 7.78681L88.213 7.78728C91.4137 9.4538 93.8881 11.785 95.6482 14.7843L95.6484 14.7847C97.4063 17.7753 98.2935 21.2711 98.2935 25.2917C98.2935 29.3138 97.3948 32.8005 95.6143 35.7745C93.8301 38.7546 91.3427 41.0768 88.1406 42.7441L88.1403 42.7442C84.9491 44.4089 81.1954 45.25 76.8639 45.25H75.9833C71.6488 45.25 67.8919 44.4089 64.6946 42.7441C61.4988 41.077 59.0174 38.755 57.233 35.7745C55.4524 32.8005 54.5537 29.3138 54.5537 25.2917C54.5537 21.2711 55.4409 17.7753 57.1988 14.7847L57.199 14.7843C58.9594 11.7846 61.428 9.45346 64.6225 7.7871L64.6227 7.78699C67.8202 6.11709 71.5769 5.27087 75.911 5.27087H76.9363C81.2673 5.27087 85.0209 6.11708 88.2121 7.78681ZM62.1959 25.9167H62.6959V25.4167C62.6959 22.7488 63.2761 20.4545 64.4235 18.5151L64.4237 18.5148C65.5727 16.5703 67.1652 15.0617 69.2081 13.9841C71.2537 12.9108 73.6529 12.3646 76.4176 12.3646C79.1888 12.3646 81.588 12.9111 83.6273 13.9842L83.6274 13.9842C85.6763 15.0619 87.2717 16.5705 88.4236 18.515C89.5684 20.4548 90.1513 22.7494 90.1513 25.4167V25.9167H90.6513H95.1989H95.6989V25.4167C95.6989 21.802 94.9227 18.6344 93.3517 15.9265C91.7893 13.2254 89.581 11.1212 86.7355 9.62048C83.8926 8.11797 80.5981 7.37504 76.8639 7.37504H75.9833C72.2493 7.37504 68.9603 8.11791 66.1347 9.62112L66.1343 9.62134C63.3195 11.1221 61.1132 13.2253 59.5216 15.9231L59.5211 15.924C57.9309 18.6327 57.1483 21.8012 57.1483 25.4167V25.9167H57.6483H62.1959Z" fill="black" stroke="white"/>
<path d="M132.843 33.1564L132.842 33.1569C130.802 35.1824 128.11 36.1771 124.818 36.1771C121.577 36.1771 118.905 35.1807 116.844 33.1591L116.844 33.1586C114.782 31.1305 113.763 28.4906 113.763 25.2917C113.763 22.0535 114.78 19.4152 116.848 17.4312L132.843 33.1564ZM132.843 33.1564C134.88 31.1279 135.885 28.4887 135.885 25.2917M132.843 33.1564L135.885 25.2917M135.885 25.2917C135.885 22.0555 134.881 19.418 132.839 17.4336M135.885 25.2917L132.839 17.4336M132.839 17.4336C130.799 15.4463 128.108 14.4688 124.818 14.4688C121.58 14.4688 118.91 15.4478 116.848 17.4309L132.839 17.4336ZM136.612 7.78681L136.613 7.78728C139.814 9.4538 142.289 11.785 144.049 14.7843L144.049 14.7847C145.807 17.7753 146.694 21.2711 146.694 25.2917C146.694 29.3138 145.795 32.8005 144.015 35.7745C142.23 38.7546 139.743 41.0768 136.541 42.7441L136.541 42.7442C133.349 44.4089 129.596 45.25 125.264 45.25H124.384C120.049 45.25 116.292 44.4089 113.095 42.7441C109.899 41.077 107.418 38.755 105.633 35.7745C103.853 32.8005 102.954 29.3138 102.954 25.2917C102.954 21.2711 103.841 17.7753 105.599 14.7847L105.599 14.7843C107.36 11.7846 109.828 9.45346 113.023 7.7871L113.023 7.78699C116.221 6.11709 119.977 5.27087 124.311 5.27087H125.337C129.668 5.27087 133.421 6.11708 136.612 7.78681ZM110.596 25.9167H111.096V25.4167C111.096 22.7488 111.677 20.4545 112.824 18.5151L112.824 18.5148C113.973 16.5703 115.566 15.0617 117.608 13.9841C119.654 12.9108 122.053 12.3646 124.818 12.3646C127.589 12.3646 129.988 12.9111 132.028 13.9842L132.028 13.9842C134.077 15.0619 135.672 16.5705 136.824 18.515C137.969 20.4548 138.552 22.7494 138.552 25.4167V25.9167H139.052H143.599H144.099V25.4167C144.099 21.802 143.323 18.6344 141.752 15.9265C140.19 13.2254 137.981 11.1212 135.136 9.62048C132.293 8.11797 128.999 7.37504 125.264 7.37504H124.384C120.65 7.37504 117.361 8.11791 114.535 9.62112L114.535 9.62134C111.72 11.1221 109.514 13.2253 107.922 15.9231L107.921 15.924C106.331 18.6327 105.549 21.8012 105.549 25.4167V25.9167H106.049H110.596Z" fill="black" stroke="white"/>
<path d="M174.215 23.7082L173.86 24.0619L174.214 24.4162L195.29 45.4792H181.521L167.446 31.1291L167.092 30.7685L166.735 31.1257L164.528 33.334L164.382 33.4805V33.6875V45.4792H161.715V25.9688V25.4688H161.215H156.667H156.167V25.9688V45.4792H153.5V5.5H164.382V18.8125V20.0115L165.233 19.1677L179.032 5.5H182.097L164.525 23.3997L164.382 23.5456V23.75V28.8125V30.0007L165.231 29.17L189.44 5.5H192.5L174.215 23.7082Z" fill="black" stroke="white"/>
<path d="M222.885 23.4791L222.53 23.8327L222.884 24.187L243.96 45.25H230.191L216.116 30.8999L215.762 30.5394L215.405 30.8966L213.198 33.1049L213.051 33.2513V33.4584V45.25H210.384V25.7396V25.2396H209.884H205.337H204.837V25.7396V45.25H202.17V5.27087H213.051V18.5834V19.7824L213.903 18.9386L227.701 5.27087H230.767L213.195 23.1706L213.051 23.3165V23.5209V28.5834V29.7715L213.901 28.9409L238.109 5.27087H241.17L222.885 23.4791Z" fill="black" stroke="white"/>
<path d="M254.193 26.875V45.25H251.526V5.27087H262.408V45.25H259.741V26.875V26.375H259.241H254.693H254.193V26.875Z" fill="black" stroke="white"/>
</svg>
